<svg xmlns="http://www.w3.org/2000/svg" width="16" height="16" viewBox="0 0 16 16">
  <path d="M 7.9999899,0 C 3.5999955,0 0,3.6064257 0,8.048193 0,12.064257 2.9279963,15.39759 6.7519915,16 V 10.37751 H 4.7199941 V 8.048193 H 6.7519915 V 6.273092 c 0,-2.016064 1.1919985,-3.1244976 3.0239965,-3.1244976 0.871999,0 1.783997,0.1526104 1.783997,0.1526104 V 5.285141 h -1.007998 c -0.991999,0 -1.303999,0.618473 -1.303999,1.253012 v 1.51004 h 2.223998 l -0.36,2.329317 H 9.247988 V 16 A 7.9999899,8.0321285 0 0 0 15.99998,8.048193 C 15.99998,3.6064257 12.399984,0 7.9999899,0 Z"/>
</svg>
