<svg xmlns="http://www.w3.org/2000/svg" class="instagram" height="16" width="16" viewBox="0 0 16 16">
    <path d="m 4.64,0 h 6.72 C 13.92,0 16,2.08 16,4.64 v 6.72 A 4.64,4.64 0 0 1 11.36,16 H 4.64 C 2.08,16 0,13.92 0,11.36 V 4.64 A 4.64,4.64 0 0 1 4.64,0 M 4.48,1.6 A 2.88,2.88 0 0 0 1.6,4.48 v 7.04 c 0,1.592 1.288,2.88 2.88,2.88 h 7.04 A 2.88,2.88 0 0 0 14.4,11.52 V 4.48 C 14.4,2.888 13.112,1.6 11.52,1.6 H 4.48 m 7.72,1.2 a 1,1 0 0 1 1,1 1,1 0 0 1 -1,1 1,1 0 0 1 -1,-1 1,1 0 0 1 1,-1 M 8,4 A 4,4 0 0 1 12,8 4,4 0 0 1 8,12 4,4 0 0 1 4,8 4,4 0 0 1 8,4 M 8,5.6 A 2.4,2.4 0 0 0 5.6,8 2.4,2.4 0 0 0 8,10.4 2.4,2.4 0 0 0 10.4,8 2.4,2.4 0 0 0 8,5.6 Z"/>
</svg>
