<svg xmlns="http://www.w3.org/2000/svg" class="youtube" height="16" width="16" viewBox="0 0 16 16">
    <g transform="matrix(1.3333333,0,0,-1.3333333,-96.546571,3.2918667)">
        <g transform="scale(0.1)">
            <path d="m 772.0991,-52.989399 v 35.357175 l 31.1759,-17.678829 z m 69.49224,46.0460065 c -1.37992,5.0704972 -5.44561,9.0643412 -10.60872,10.4195192 -9.35859,2.462877 -46.88361,2.462877 -46.88361,2.462877 0,0 -37.52474,0 -46.88313,-2.462877 -5.16267,-1.355178 -9.22914,-5.349022 -10.60894,-10.4195192 -2.50764,-9.1912375 -2.50764,-28.3672735 -2.50764,-28.3672735 0,0 0,-19.176812 2.50764,-28.367658 1.3798,-5.07008 5.44627,-9.064293 10.60894,-10.419073 9.35839,-2.463605 46.88313,-2.463605 46.88313,-2.463605 0,0 37.52502,0 46.88361,2.463605 5.16311,1.35478 9.2288,5.348993 10.60872,10.419073 2.50796,9.190846 2.50796,28.367658 2.50796,28.367658 0,0 0,19.176036 -2.50796,28.3672735" />
        </g>
    </g>
</svg>